<?xml version='1.0' encoding='UTF-8'?>
<svg width="66mm" height="66mm" version="1.1" viewBox="0 0 66 66" xmlns="http://www.w3.org/2000/svg"><path d="M4,4H6V6H4zM6,4H8V6H6zM8,4H10V6H8zM10,4H12V6H10zM12,4H14V6H12zM14,4H16V6H14zM16,4H18V6H16zM24,4H26V6H24zM26,4H28V6H26zM30,4H32V6H30zM32,4H34V6H32zM34,4H36V6H34zM38,4H40V6H38zM42,4H44V6H42zM48,4H50V6H48zM50,4H52V6H50zM52,4H54V6H52zM54,4H56V6H54zM56,4H58V6H56zM58,4H60V6H58zM60,4H62V6H60zM4,6H6V8H4zM16,6H18V8H16zM20,6H22V8H20zM22,6H24V8H22zM24,6H26V8H24zM26,6H28V8H26zM28,6H30V8H28zM34,6H36V8H34zM40,6H42V8H40zM44,6H46V8H44zM48,6H50V8H48zM60,6H62V8H60zM4,8H6V10H4zM8,8H10V10H8zM10,8H12V10H10zM12,8H14V10H12zM16,8H18V10H16zM20,8H22V10H20zM26,8H28V10H26zM28,8H30V10H28zM32,8H34V10H32zM36,8H38V10H36zM40,8H42V10H40zM48,8H50V10H48zM52,8H54V10H52zM54,8H56V10H54zM56,8H58V10H56zM60,8H62V10H60zM4,10H6V12H4zM8,10H10V12H8zM10,10H12V12H10zM12,10H14V12H12zM16,10H18V12H16zM20,10H22V12H20zM26,10H28V12H26zM32,10H34V12H32zM34,10H36V12H34zM38,10H40V12H38zM42,10H44V12H42zM48,10H50V12H48zM52,10H54V12H52zM54,10H56V12H54zM56,10H58V12H56zM60,10H62V12H60zM4,12H6V14H4zM8,12H10V14H8zM10,12H12V14H10zM12,12H14V14H12zM16,12H18V14H16zM24,12H26V14H24zM26,12H28V14H26zM28,12H30V14H28zM30,12H32V14H30zM32,12H34V14H32zM34,12H36V14H34zM40,12H42V14H40zM44,12H46V14H44zM48,12H50V14H48zM52,12H54V14H52zM54,12H56V14H54zM56,12H58V14H56zM60,12H62V14H60zM4,14H6V16H4zM16,14H18V16H16zM24,14H26V16H24zM26,14H28V16H26zM28,14H30V16H28zM30,14H32V16H30zM32,14H34V16H32zM36,14H38V16H36zM38,14H40V16H38zM44,14H46V16H44zM48,14H50V16H48zM60,14H62V16H60zM4,16H6V18H4zM6,16H8V18H6zM8,16H10V18H8zM10,16H12V18H10zM12,16H14V18H12zM14,16H16V18H14zM16,16H18V18H16zM20,16H22V18H20zM24,16H26V18H24zM28,16H30V18H28zM32,16H34V18H32zM36,16H38V18H36zM40,16H42V18H40zM44,16H46V18H44zM48,16H50V18H48zM50,16H52V18H50zM52,16H54V18H52zM54,16H56V18H54zM56,16H58V18H56zM58,16H60V18H58zM60,16H62V18H60zM20,18H22V20H20zM24,18H26V20H24zM26,18H28V20H26zM28,18H30V20H28zM30,18H32V20H30zM40,18H42V20H40zM42,18H44V20H42zM4,20H6V22H4zM16,20H18V22H16zM20,20H22V22H20zM22,20H24V22H22zM26,20H28V22H26zM28,20H30V22H28zM32,20H34V22H32zM34,20H36V22H34zM38,20H40V22H38zM42,20H44V22H42zM46,20H48V22H46zM48,20H50V22H48zM54,20H56V22H54zM56,20H58V22H56zM58,20H60V22H58zM6,22H8V24H6zM8,22H10V24H8zM10,22H12V24H10zM12,22H14V24H12zM14,22H16V24H14zM18,22H20V24H18zM20,22H22V24H20zM22,22H24V24H22zM24,22H26V24H24zM28,22H30V24H28zM32,22H34V24H32zM38,22H40V24H38zM40,22H42V24H40zM42,22H44V24H42zM50,22H52V24H50zM52,22H54V24H52zM56,22H58V24H56zM58,22H60V24H58zM6,24H8V26H6zM8,24H10V26H8zM10,24H12V26H10zM12,24H14V26H12zM16,24H18V26H16zM18,24H20V26H18zM20,24H22V26H20zM26,24H28V26H26zM38,24H40V26H38zM40,24H42V26H40zM48,24H50V26H48zM50,24H52V26H50zM8,26H10V28H8zM10,26H12V28H10zM12,26H14V28H12zM18,26H20V28H18zM22,26H24V28H22zM28,26H30V28H28zM32,26H34V28H32zM34,26H36V28H34zM36,26H38V28H36zM40,26H42V28H40zM42,26H44V28H42zM46,26H48V28H46zM48,26H50V28H48zM52,26H54V28H52zM54,26H56V28H54zM4,28H6V30H4zM8,28H10V30H8zM10,28H12V30H10zM12,28H14V30H12zM14,28H16V30H14zM16,28H18V30H16zM18,28H20V30H18zM20,28H22V30H20zM24,28H26V30H24zM26,28H28V30H26zM30,28H32V30H30zM32,28H34V30H32zM40,28H42V30H40zM44,28H46V30H44zM48,28H50V30H48zM50,28H52V30H50zM60,28H62V30H60zM6,30H8V32H6zM12,30H14V32H12zM14,30H16V32H14zM18,30H20V32H18zM22,30H24V32H22zM28,30H30V32H28zM30,30H32V32H30zM32,30H34V32H32zM42,30H44V32H42zM44,30H46V32H44zM46,30H48V32H46zM48,30H50V32H48zM50,30H52V32H50zM52,30H54V32H52zM58,30H60V32H58zM60,30H62V32H60zM4,32H6V34H4zM6,32H8V34H6zM8,32H10V34H8zM12,32H14V34H12zM16,32H18V34H16zM18,32H20V34H18zM24,32H26V34H24zM26,32H28V34H26zM28,32H30V34H28zM30,32H32V34H30zM32,32H34V34H32zM34,32H36V34H34zM36,32H38V34H36zM38,32H40V34H38zM44,32H46V34H44zM46,32H48V34H46zM50,32H52V34H50zM54,32H56V34H54zM56,32H58V34H56zM4,34H6V36H4zM10,34H12V36H10zM14,34H16V36H14zM20,34H22V36H20zM26,34H28V36H26zM28,34H30V36H28zM30,34H32V36H30zM32,34H34V36H32zM36,34H38V36H36zM40,34H42V36H40zM42,34H44V36H42zM52,34H54V36H52zM56,34H58V36H56zM60,34H62V36H60zM6,36H8V38H6zM8,36H10V38H8zM14,36H16V38H14zM16,36H18V38H16zM20,36H22V38H20zM22,36H24V38H22zM24,36H26V38H24zM26,36H28V38H26zM32,36H34V38H32zM34,36H36V38H34zM38,36H40V38H38zM42,36H44V38H42zM50,36H52V38H50zM54,36H56V38H54zM56,36H58V38H56zM4,38H6V40H4zM8,38H10V40H8zM10,38H12V40H10zM14,38H16V40H14zM20,38H22V40H20zM24,38H26V40H24zM36,38H38V40H36zM42,38H44V40H42zM48,38H50V40H48zM50,38H52V40H50zM52,38H54V40H52zM56,38H58V40H56zM58,38H60V40H58zM60,38H62V40H60zM4,40H6V42H4zM6,40H8V42H6zM8,40H10V42H8zM10,40H12V42H10zM14,40H16V42H14zM16,40H18V42H16zM20,40H22V42H20zM26,40H28V42H26zM30,40H32V42H30zM32,40H34V42H32zM36,40H38V42H36zM38,40H40V42H38zM40,40H42V42H40zM42,40H44V42H42zM48,40H50V42H48zM52,40H54V42H52zM54,40H56V42H54zM60,40H62V42H60zM4,42H6V44H4zM8,42H10V44H8zM12,42H14V44H12zM14,42H16V44H14zM18,42H20V44H18zM24,42H26V44H24zM32,42H34V44H32zM34,42H36V44H34zM36,42H38V44H36zM42,42H44V44H42zM44,42H46V44H44zM4,44H6V46H4zM8,44H10V46H8zM10,44H12V46H10zM16,44H18V46H16zM20,44H22V46H20zM22,44H24V46H22zM26,44H28V46H26zM36,44H38V46H36zM38,44H40V46H38zM40,44H42V46H40zM44,44H46V46H44zM46,44H48V46H46zM48,44H50V46H48zM50,44H52V46H50zM52,44H54V46H52zM56,44H58V46H56zM58,44H60V46H58zM60,44H62V46H60zM20,46H22V48H20zM22,46H24V48H22zM28,46H30V48H28zM30,46H32V48H30zM36,46H38V48H36zM44,46H46V48H44zM52,46H54V48H52zM54,46H56V48H54zM4,48H6V50H4zM6,48H8V50H6zM8,48H10V50H8zM10,48H12V50H10zM12,48H14V50H12zM14,48H16V50H14zM16,48H18V50H16zM24,48H26V50H24zM30,48H32V50H30zM32,48H34V50H32zM34,48H36V50H34zM36,48H38V50H36zM38,48H40V50H38zM42,48H44V50H42zM44,48H46V50H44zM48,48H50V50H48zM52,48H54V50H52zM54,48H56V50H54zM56,48H58V50H56zM4,50H6V52H4zM16,50H18V52H16zM22,50H24V52H22zM24,50H26V52H24zM26,50H28V52H26zM30,50H32V52H30zM40,50H42V52H40zM42,50H44V52H42zM44,50H46V52H44zM52,50H54V52H52zM58,50H60V52H58zM4,52H6V54H4zM8,52H10V54H8zM10,52H12V54H10zM12,52H14V54H12zM16,52H18V54H16zM26,52H28V54H26zM28,52H30V54H28zM30,52H32V54H30zM34,52H36V54H34zM36,52H38V54H36zM38,52H40V54H38zM42,52H44V54H42zM44,52H46V54H44zM46,52H48V54H46zM48,52H50V54H48zM50,52H52V54H50zM52,52H54V54H52zM54,52H56V54H54zM4,54H6V56H4zM8,54H10V56H8zM10,54H12V56H10zM12,54H14V56H12zM16,54H18V56H16zM22,54H24V56H22zM26,54H28V56H26zM28,54H30V56H28zM36,54H38V56H36zM38,54H40V56H38zM40,54H42V56H40zM42,54H44V56H42zM44,54H46V56H44zM54,54H56V56H54zM56,54H58V56H56zM58,54H60V56H58zM4,56H6V58H4zM8,56H10V58H8zM10,56H12V58H10zM12,56H14V58H12zM16,56H18V58H16zM22,56H24V58H22zM28,56H30V58H28zM30,56H32V58H30zM32,56H34V58H32zM38,56H40V58H38zM42,56H44V58H42zM46,56H48V58H46zM48,56H50V58H48zM50,56H52V58H50zM52,56H54V58H52zM54,56H56V58H54zM56,56H58V58H56zM58,56H60V58H58zM4,58H6V60H4zM16,58H18V60H16zM22,58H24V60H22zM26,58H28V60H26zM28,58H30V60H28zM32,58H34V60H32zM34,58H36V60H34zM40,58H42V60H40zM46,58H48V60H46zM52,58H54V60H52zM54,58H56V60H54zM56,58H58V60H56zM60,58H62V60H60zM4,60H6V62H4zM6,60H8V62H6zM8,60H10V62H8zM10,60H12V62H10zM12,60H14V62H12zM14,60H16V62H14zM16,60H18V62H16zM20,60H22V62H20zM28,60H30V62H28zM30,60H32V62H30zM40,60H42V62H40zM42,60H44V62H42zM46,60H48V62H46zM48,60H50V62H48zM50,60H52V62H50zM52,60H54V62H52zM56,60H58V62H56z" id="qr-path" fill="#000000" fill-opacity="1" fill-rule="nonzero" stroke="none"/></svg>