<?xml version="1.0" encoding="UTF-8"?>
<svg id="Layer_1" data-name="Layer 1" xmlns="http://www.w3.org/2000/svg" width="611.34" height="93.45" viewBox="0 0 611.34 93.45">
  <defs>
    <style>
      .cls-1 {
        fill-rule: evenodd;
      }

      .cls-1, .cls-2 {
        fill: #ce0e2d;
      }
    </style>
  </defs>
  <g>
    <path class="cls-2" d="m408.72,8.46s4.68.12,5.94.12,6.66-.18,6.66-.18v.9c-2.94.42-3.9,1.2-2.22,5.22l9.66,23.22,9.36-25.2c.36-1.56.54-2.46-2.34-3.24v-.84s4.5.12,6.18.12c2.16-.06,4.74-.12,4.74-.12v.84c-3.48,0-4.26.78-6,5.28l-12.96,31.2h-1.08s-11.94-29.1-12.96-31.08c-1.86-3.84-1.8-4.98-4.98-5.4v-.84h0Z"/>
    <path class="cls-2" d="m4.2,15.24v15.3Q4.2,43.14,0,43.86v1.14s4.08-.3,7.26-.3,7.2.3,7.2.3v-1.14q-4.2-.72-4.2-13.32v-15.3q0-12.6,4.2-13.26V.84s-4.02.18-7.2.18S0,.84,0,.84v1.14c4.26.66,4.2.66,4.2,13.26h0Z"/>
    <path class="cls-2" d="m174.78,1.8s-5.64-1.8-10.2-1.8c-8.58,0-15.18,6.12-15.18,12.54,0,14.46,22.38,10.44,22.38,21.66,0,9-12,12.42-19.68,6.3-1.62-1.26-1.86-3.84-2.22-5.46h-1.38l.48,8.22s5.94,2.52,12.06,2.52c10.74-.06,16.08-7.26,16.08-13.86,0-14.52-22.56-10.5-22.5-21.54.06-7.98,9.6-10.02,16.62-6.06,1.74.84,2.52,5.28,2.52,5.28h1.32l-.3-7.8h0Z"/>
    <path class="cls-2" d="m177.36,15.24l.6-6.84s12.42.18,15.18.18,15.42-.18,15.42-.18l.3,6.84s.24,0-.96,0c-.96-4.14-2.22-4.8-8.04-4.8h-4.08v28.2c0,4.38.12,4.98,4.08,5.34,0,1.08,0,1.02,0,1.02,0,0-3.96-.18-6.72-.18s-6.78.18-6.78.18c0,0,0,.06,0-1.02,4.02-.36,4.14-1.02,4.14-5.34V10.44h-4.14c-5.82,0-7.02.66-8.1,4.8-1.14,0-.9,0-.9,0h0Z"/>
    <path class="cls-2" d="m270.3,8.22s7.56.12,11.16.12,10.38-.12,11.34-.12c.06,1.2.6,4.86.72,5.94l-.84.24c-1.32-3.42-2.58-4.92-14.1-4.08,0,.06,0,14.58,0,14.52,10.68.06,12.12.3,12.42-3.66h.96c-.24,3.54-.36,5.7-.24,9.18h-.96c-.18-3.78-1.56-3.54-12.18-3.54v15.66c10.14.66,14.4.3,15.96-4.68l1.02.36c-.48,1.8-1.8,6.72-1.8,6.72,0,0-12.66-.18-14.88-.18-3.6,0-8.58.18-8.58.18v-.96c2.94-.42,3.36-.48,3.48-5.22V14.58c-.06-4.92-1.14-5.04-3.48-5.4v-.96h0Z"/>
    <path class="cls-2" d="m311.64.66s4.32.18,7.38.18,7.32-.18,7.32-.18v1.14c-1.98.6-4.38.18-4.38,7.44v18.78c0,7.5,1.8,9.18,1.8,9.18,0,0,2.7,5.22,10.2,5.22,6.78,0,9.54-5.16,9.54-5.16,0,0,1.56-1.5,1.68-8.82,0,.18,0-19.14,0-19.14-.12-6.72-.72-6.66-5.46-7.5V.66s2.64.18,6.9.18c3.24,0,5.94-.18,5.94-.18,0,0,0,1.2,0,1.14-2.76.6-4.44.96-4.38,7.26v21.06c.06,7.32-3.72,10.56-3.72,10.56,0,0-4.14,4.92-13.02,4.92-9.36,0-13.38-6.18-13.38-6.18,0,0-2.4-2.46-2.4-11.34V9.3c0-6.72-.9-7.02-4.02-7.5V.66h0Z"/>
    <path class="cls-2" d="m353.52,8.4s2.16.12,4.56.12,3.48-.12,3.48-.12l25.02,28.38V14.58c0-4.2-.84-4.86-4.38-5.28v-.9s3,.18,5.4.18,5.16-.18,5.16-.18v.9c-2.88.96-3.66,1.14-3.66,5.22v31.08l-1.86-.18-26.04-29.58v22.68c0,3.42.48,4.86,4.14,5.46v.9s-2.94-.18-5.46-.18c-2.28,0-5.22.18-5.22.18v-.9c3.54-.6,4.14-2.04,4.14-5.46V14.58c0-3.96-2.7-4.62-5.28-5.28v-.9h0Z"/>
    <path class="cls-2" d="m579.6,8.46s3.3.12,5.82.12,6.06-.12,6.06-.12v.96c-2.28.66-3.6.78-2.04,3.3l7.74,12.6,7.32-12.54c.9-1.86,1.38-2.94-2.22-3.48v-.84s2.46.12,4.8.12c2.1,0,4.26-.12,4.26-.12v.84c-2.34.54-2.4,1.14-3.96,3.42l-9.42,14.58.12,11.28c0,4.92,1.26,4.74,4.2,5.4v.9s-3.78-.18-6.54-.18-6.66.18-6.66.18v-.9c3.36-.66,3.78-.42,3.9-5.34l.06-11.34-9.3-14.46c-2.22-2.88-2.04-2.94-4.14-3.42v-.96h0Z"/>
    <path class="cls-2" d="m69.36,8.22s3.42.06,6.36.06,6.36-.06,6.36-.06c0,0,0-.06,0,.96-2.7.3-3.78,1.32-3.12,3.42l10.44,25.14,9-25.14c.66-2.58.06-3.12-3.6-3.42,0-1.08,0-.96,0-.96,0,0,2.76.06,5.04.06s5.4-.06,5.4-.06c0,0,0-.06,0,.96-2.58.3-3.06,1.32-3.9,3.36h0l-12.66,33h-1.32l-8.7-20.88-8.76,20.88h-1.02l-13.38-33c-.96-2.16-1.26-2.52-4.32-3.36,0-1.08-.06-.96-.06-.96,0,0,3.36.06,6.24.06s6.48-.06,6.48-.06c0,0,0-.06,0,.96-2.94.3-3.78,1.32-3.06,3.48l10.02,25.08,6.66-15.9-3.72-9.24c-1.26-2.58-1.44-2.76-4.38-3.42,0-1.08,0-.96,0-.96h0Z"/>
    <path class="cls-2" d="m236.28,15.24l.6-6.84s12.42.18,15.18.18,15.42-.18,15.42-.18l.3,6.84s.24,0-.96,0c-.96-4.14-2.22-4.8-8.04-4.8h-4.08v28.2c0,4.38.12,4.98,4.08,5.34,0,1.08,0,1.02,0,1.02,0,0-3.96-.18-6.72-.18s-6.78.18-6.78.18c0,0,0,.06,0-1.02,4.02-.36,4.14-1.02,4.14-5.34V10.44h-4.14c-5.82,0-7.02.66-8.1,4.8-1.14,0-.9,0-.9,0h0Z"/>
    <path class="cls-2" d="m537.3,20.28v12.66c0,10.44.06,10.44-3.42,11.04v.96s3.42-.24,6-.24,6,.24,6,.24v-.96q-3.48-.6-3.48-11.04v-12.66q0-10.38,3.48-10.92v-.96s-3.36.12-6,.12-6-.12-6-.12v.96c3.54.54,3.42.54,3.42,10.92h0Z"/>
    <path class="cls-2" d="m400.2,20.28v12.66c0,10.44.06,10.44-3.42,11.04v.96s3.42-.24,6-.24,6,.24,6,.24v-.96q-3.48-.6-3.48-11.04v-12.66q0-10.38,3.48-10.92v-.96s-3.36.12-6,.12-6-.12-6-.12v.96c3.54.54,3.42.54,3.42,10.92h0Z"/>
    <path class="cls-2" d="m446.64,8.4s7.56.12,11.16.12,10.38-.12,11.34-.12c.06,1.2.6,4.86.72,5.94l-.84.24c-1.32-3.42-2.58-4.92-14.1-4.08,0,.06,0,14.58,0,14.52,10.68.06,12.12.3,12.42-3.66h.96c-.24,3.54-.36,5.7-.24,9.18h-.96c-.18-3.78-1.56-3.54-12.18-3.54v15.66c10.14.66,14.4.3,15.96-4.68l1.02.36c-.48,1.8-1.8,6.72-1.8,6.72,0,0-12.66-.18-14.88-.18-3.6,0-8.58.18-8.58.18v-.96c2.94-.42,3.36-.48,3.48-5.22V14.76c-.06-4.92-.72-5.28-3.48-5.4v-.96h0Z"/>
    <path class="cls-2" d="m547.44,15.24l.6-6.84s12.42.18,15.18.18,15.42-.18,15.42-.18l.3,6.84s.24,0-.96,0c-.96-4.14-2.22-4.8-8.04-4.8h-4.08v28.2c0,4.38.12,4.98,4.08,5.34,0,1.08,0,1.02,0,1.02,0,0-3.96-.18-6.72-.18s-6.78.18-6.78.18c0,0,0,.06,0-1.02,4.02-.36,4.14-1.02,4.14-5.34V10.44h-4.14c-5.82,0-7.02.66-8.1,4.8-1.14,0-.9,0-.9,0h0Z"/>
    <path class="cls-2" d="m527.82,9.24s-4.62-1.44-8.34-1.44c-7.08,0-12.54,5.04-12.54,10.32,0,11.88,18.42,8.58,18.42,17.82,0,7.38-9.84,10.2-16.2,5.16-1.32-1.02-1.5-3.18-1.8-4.5h-1.14l.42,6.78s4.86,2.1,9.9,2.1c8.82-.06,13.26-6,13.26-11.46,0-11.94-18.6-8.64-18.54-17.7.06-6.54,7.92-8.22,13.68-4.98,1.44.66,2.04,4.32,2.04,4.32h1.14l-.3-6.42h0Z"/>
    <path class="cls-1" d="m22.06,31.08c1.4,8.75,6.97,12.6,12.98,12.6s11.52-3.85,12.92-12.6h5.72c-2.09,8.47-9.82,14.4-18.65,14.4s-16.63-5.93-18.67-14.4h5.69Z"/>
    <path class="cls-1" d="m16.37,31.08c-.34-1.43-.53-2.94-.53-4.5,0-10.68,8.76-18.84,19.2-18.84s19.2,8.16,19.2,18.84c0,1.56-.2,3.07-.55,4.5h-5.72c.22-1.37.34-2.87.34-4.5,0-11.82-6.36-17.04-13.26-17.04s-13.32,5.22-13.32,17.04c0,1.62.12,3.12.34,4.5h-5.69Z"/>
    <path class="cls-2" d="m15.84,26.58c0-10.68,8.76-18.84,19.2-18.84s19.2,8.16,19.2,18.84c-.06,10.8-8.88,18.9-19.2,18.9s-19.2-8.1-19.2-18.9h0Zm32.46,0c0-11.82-6.36-17.04-13.26-17.04s-13.32,5.22-13.32,17.04,6.36,17.1,13.32,17.1,13.26-5.16,13.26-17.1h0Z"/>
    <path class="cls-1" d="m108.48,8.22s2.34.06,4.62.06,4.38-.06,4.38-.06l12.42,32.46c1.14,2.64,2.64,3.06,4.38,3.36,0,1.08,0,.96,0,.96h0s-3.42-.18-6.3-.18-6.42.18-6.42.18c0,0,0,.12,0-.96,2.28-.36,3.78-.42,2.64-3.36l-3.9-10.8h-12.06l-4.26,10.8c-1.14,2.94,1.2,3.06,3.12,3.36,0,1.08,0,.96,0,.96,0,0-2.52-.18-4.86-.18s-4.92.18-4.92.18c0,0-.06.24-.06-.9,2.04-.78,2.34-.78,3.48-3.42l12-28.08c.96-2.64-1.5-2.82-4.26-3.48,0-1.08,0-.9,0-.9h0Zm10.92,18.96l-4.8-13.5-5.34,13.5h10.14Z"/>
    <path class="cls-2" d="m108.48,8.22s2.34.06,4.62.06,4.38-.06,4.38-.06l12.42,32.46c1.14,2.64,2.64,3.06,4.38,3.36,0,1.08,0,.96,0,.96h0s-3.42-.18-6.3-.18-6.42.18-6.42.18c0,0,0,.12,0-.96,2.28-.36,3.78-.42,2.64-3.36l-3.9-10.8h-12.06l-4.26,10.8c-1.14,2.94,1.2,3.06,3.12,3.36,0,1.08,0,.96,0,.96,0,0-2.52-.18-4.86-.18s-4.92.18-4.92.18c0,0-.06.24-.06-.9,2.04-.78,2.34-.78,3.48-3.42l12-28.08c.96-2.64-1.5-2.82-4.26-3.48,0-1.08,0-.9,0-.9h0Zm10.92,18.96l-4.8-13.5-5.34,13.5h10.14Z"/>
    <path class="cls-1" d="m215.28,8.4s2.34.06,4.62.06,4.38-.06,4.38-.06l12.42,32.46c1.14,2.64,2.64,3.06,4.38,3.36,0,1.08,0,.96,0,.96h0s-3.42-.18-6.3-.18-6.42.18-6.42.18c0,0,0,.12,0-.96,2.28-.36,3.78-.42,2.64-3.36l-3.9-10.8h-12.06l-4.26,10.8c-1.14,2.94,1.2,3.06,3.12,3.36,0,1.08,0,.96,0,.96,0,0-2.52-.18-4.86-.18s-4.92.18-4.92.18c0,0-.06.24-.06-.9,2.04-.78,2.34-.78,3.48-3.42l12-28.08c.96-2.64-1.5-2.82-4.26-3.48,0-1.08,0-.9,0-.9h0Zm10.92,18.96l-4.8-13.5-5.34,13.5h10.14Z"/>
    <path class="cls-2" d="m215.28,8.4s2.34.06,4.62.06,4.38-.06,4.38-.06l12.42,32.46c1.14,2.64,2.64,3.06,4.38,3.36,0,1.08,0,.96,0,.96h0s-3.42-.18-6.3-.18-6.42.18-6.42.18c0,0,0,.12,0-.96,2.28-.36,3.78-.42,2.64-3.36l-3.9-10.8h-12.06l-4.26,10.8c-1.14,2.94,1.2,3.06,3.12,3.36,0,1.08,0,.96,0,.96,0,0-2.52-.18-4.86-.18s-4.92.18-4.92.18c0,0-.06.24-.06-.9,2.04-.78,2.34-.78,3.48-3.42l12-28.08c.96-2.64-1.5-2.82-4.26-3.48,0-1.08,0-.9,0-.9h0Zm10.92,18.96l-4.8-13.5-5.34,13.5h10.14Z"/>
    <path class="cls-1" d="m482.34,30.66c0,3.27,0,7.94,0,7.86.24,5.04.78,5.16,3.48,5.7v.78s-2.82,0-6.18-.06c-1.98,0-5.94.12-5.94.12v-.84c2.52-.3,3.48-1.14,3.48-5.7v-7.86h5.16Zm12.4,0c1.84,2.48,3.63,5.29,4.52,6.72,3.78,6,3.72,6.36,7.02,6.84v.84s-2.22-.12-3.42-.12c-1.08,0-3.24.06-4.08.06-2.46-2.76-4.98-7.38-6.9-10.32-.99-1.53-1.96-2.9-2.96-4.02h5.82Z"/>
    <path class="cls-1" d="m477.18,30.66V14.58c0-3.96-1.08-4.8-3.48-5.1v-.84s3.18.12,4.62.12c1.74,0,5.34-.42,7.98-.42,6.12.06,13.26,2.46,13.26,9.6s-6.12,7.62-8.4,8.64c1.05.85,2.33,2.39,3.58,4.08h-5.82c-1.9-2.12-3.95-3.36-6.58-3.12v3.12h-5.16Zm5.16-19.62c3.84-1.56,11.58-1.14,11.76,7.02.18,8.28-8.4,8.58-11.76,7.74v-14.76h0Z"/>
    <path class="cls-2" d="m499.26,37.38c-1.5-2.4-5.52-8.7-8.1-10.8,2.28-1.02,8.4-1.8,8.4-8.64s-7.14-9.54-13.26-9.6c-2.64,0-6.24.42-7.98.42-1.44,0-4.62-.12-4.62-.12v.84c2.4.3,3.48,1.14,3.48,5.1v23.94c0,4.56-.96,5.4-3.48,5.7v.84s3.96-.12,5.94-.12c3.36.06,6.18.06,6.18.06v-.78c-2.7-.54-3.24-.66-3.48-5.7,0,.12,0-10.98,0-10.98,4.02-.36,6.66,2.7,9.54,7.14,1.92,2.94,4.44,7.56,6.9,10.32.84,0,3-.06,4.08-.06,1.2,0,3.42.12,3.42.12v-.84c-3.3-.48-3.24-.84-7.02-6.84Zm-16.92-11.58v-14.76c3.84-1.56,11.58-1.14,11.76,7.02.18,8.28-8.4,8.58-11.76,7.74Z"/>
  </g>
  <g>
    <path class="cls-2" d="m2.04,66.23h8.54c2.41,0,5.6.25,7.7,1.68,3,2.04,3.81,5.38,3.81,8.37,0,4.48-1.43,7.78-5.52,9.38-2.07.78-4.54.78-5.94.78H2.04v-20.22Zm5.74,16.32h2.41c3.72-.03,6.1-1.62,6.1-6.33,0-6.13-4.59-6.13-6.3-6.13l-2.21-.03v12.49Z"/>
    <path class="cls-2" d="m25.2,66.29h5.38v3.75h-5.38v-3.75Zm.06,6.1h5.26v14.06h-5.26v-14.06Z"/>
    <path class="cls-2" d="m49.59,72.31v13.1c0,1.68-.34,3.67-2.24,5.01-1.2.87-2.91,1.57-5.8,1.57-1.6,0-4.26-.22-5.85-1.65-1.23-1.09-1.26-2.41-1.29-3.14h4.96c.03,1.06.78,1.79,2.3,1.79,2.63,0,2.8-1.9,2.8-3.42v-1.85c-1.43,2.13-3.72,2.27-4.54,2.27-2.97,0-6.24-1.85-6.24-6.97,0-3.81,2.02-6.97,6.3-6.97,2.72,0,3.95,1.26,4.65,2.38v-2.13h4.96Zm-7.76,2.69c-1.76,0-2.72,1.62-2.72,3.98,0,1.48.34,3.92,2.66,3.92,2.52,0,2.6-2.97,2.6-3.98,0-.73,0-3.92-2.55-3.92Z"/>
    <path class="cls-2" d="m53.2,66.29h5.38v3.75h-5.38v-3.75Zm.06,6.1h5.26v14.06h-5.26v-14.06Z"/>
    <path class="cls-2" d="m72.16,72.45v3.36h-3.39v4.87c.03,1.74.03,2.52,2.04,2.52.42,0,.67,0,1.32-.08v3.3c-.7.11-1.62.25-3.42.25-4.2,0-5.04-1.4-5.04-4.12v-6.75h-2.66v-3.36h2.74v-2.18l5.07-2.02v4.2h3.33Z"/>
    <path class="cls-2" d="m83.72,86.45c-.11-.5-.17-1.12-.17-2.02-.64.95-1.74,2.3-4.62,2.3-3.44,0-4.96-1.88-4.96-4.37,0-3.84,3.56-5.24,9.6-4.98.03-1.51-.17-2.91-1.76-2.91-.98,0-1.9.53-1.88,2.13h-5.04c.03-.64.03-1.85,1.09-2.94,1.09-1.12,3.28-1.76,5.82-1.76,1.26,0,3.95.17,5.43,1.62.9.87,1.23,2.18,1.23,3.7v6.55c0,1.01.03,1.29.28,2.69h-5.04Zm-4.56-4.56c0,1.04.67,1.9,1.93,1.9.56,0,1.54-.22,2.07-1.34.42-.9.42-2.04.39-2.63-2.24.03-4.4.06-4.4,2.07Z"/>
    <path class="cls-2" d="m92.12,66.23h5.26v20.22h-5.26v-20.22Z"/>
    <path class="cls-2" d="m110.88,66.23h9.3c1.57,0,3.61,0,5.26,1.04,1.71,1.04,2.86,2.86,2.86,5.49,0,3.56-2.27,5.1-3.05,5.52-1.57.87-4,.87-5.1.87l-3.64.03v7.28h-5.63v-20.22Zm5.63,9.07h2.49c1.37,0,3.58,0,3.58-2.72,0-2.46-1.99-2.6-3.61-2.6h-2.46v5.32Z"/>
    <path class="cls-2" d="m130.37,75.39l-.14-3h5.12l.08,2.91c1.2-3.14,3.75-3.05,4.96-3.02v4.51c-.62-.06-.76-.08-1.12-.08-3.22,0-3.67,2.27-3.67,3.78v5.96h-5.24v-11.06Z"/>
    <path class="cls-2" d="m146.83,80.48c0,.76,0,3.42,2.69,3.42,1.4,0,2.27-.73,2.41-2.04h4.9c-.39,3.53-3.7,4.9-7.34,4.9-4.9,0-7.53-2.46-7.53-7.11s2.3-7.76,7.48-7.76c3.92,0,5.74,1.6,6.69,3.58.62,1.2.78,2.55.78,5.01h-10.08Zm5.12-2.86c-.06-.81-.22-2.94-2.52-2.94s-2.49,2.27-2.55,2.94h5.07Z"/>
    <path class="cls-2" d="m164.05,81.88c0,.25,0,.78.22,1.26.2.45.64.87,1.54.87,1.2,0,1.6-.81,1.6-1.43,0-.98-.81-1.26-1.99-1.57l-2.86-.81c-.87-.22-3.42-.92-3.42-3.81,0-1.4.76-2.58,1.68-3.19,1.23-.87,2.91-1.2,4.98-1.2,3.02,0,6.19.81,6.41,4.73h-4.98c0-.42,0-.95-.2-1.37-.22-.45-.62-.76-1.46-.76s-1.57.36-1.57,1.23c0,.81.59,1.12,1.43,1.34l3.75,1.04c1.34.36,3.3,1.12,3.3,3.86,0,4.76-5.52,4.76-6.75,4.76-2.86,0-6.97-.42-6.92-4.96h5.21Z"/>
    <path class="cls-2" d="m179.62,81.88c0,.25,0,.78.22,1.26.2.45.64.87,1.54.87,1.2,0,1.6-.81,1.6-1.43,0-.98-.81-1.26-1.99-1.57l-2.86-.81c-.87-.22-3.42-.92-3.42-3.81,0-1.4.76-2.58,1.68-3.19,1.23-.87,2.91-1.2,4.98-1.2,3.02,0,6.19.81,6.41,4.73h-4.98c0-.42,0-.95-.2-1.37-.22-.45-.62-.76-1.46-.76s-1.57.36-1.57,1.23c0,.81.59,1.12,1.43,1.34l3.75,1.04c1.34.36,3.3,1.12,3.3,3.86,0,4.76-5.52,4.76-6.75,4.76-2.86,0-6.97-.42-6.92-4.96h5.21Z"/>
  </g>
</svg>
